<svg xmlns="http://www.w3.org/2000/svg" viewBox="0 0 128 128" role="img" aria-labelledby="title desc">
  <title id="title">Plain Politics crowned P mark</title>
  <desc id="desc">A navy square logo with an off-white letter P and a small abstract red crown.</desc>
  <rect width="128" height="128" rx="28" fill="#071F3A"/>
  <path d="M32 32L43 20L54 32L64 20L75 32L85 20L96 32V43H32V32Z" fill="#C8102E"/>
  <path d="M36 47H58V104H36V47Z" fill="#F8FAFC"/>
  <path d="M52 47H76C92.8 47 104 57.5 104 72C104 86.5 92.8 97 76 97H52V79H75C82.4 79 86.8 76.1 86.8 72C86.8 67.9 82.4 65 75 65H52V47Z" fill="#F8FAFC"/>
  <rect x="58" y="65" width="18" height="14" rx="7" fill="#071F3A"/>
</svg>
